{
  "source": "C:\\Users\\mbnyau\\Desktop\\stuff\\MIUN\\quantitative_research\\video_compression\\videos\\UVG\\Jockey_1920x1080_120fps_420_8bit_YUV.y4m",
  "output": "C:\\Users\\mbnyau\\Desktop\\stuff\\MIUN\\quantitative_research\\video_compression\\compressed_videos\\UVG\\hevc\\1\\Jockey_1920x1080_120fps_420_8bit_YUV_hevc.mp4",
  "codec": "hevc",
  "ok": "[yuv4mpegpipe @ 000002c470d86a40] Stream #0: not enough frames to estimate rate; consider increasing probesize\nInput #0, yuv4mpegpipe, from 'C:\\Users\\mbnyau\\Desktop\\stuff\\MIUN\\quantitative_research\\video_compression\\videos\\UVG\\Jockey_1920x1080_120fps_420_8bit_YUV.y4m':\n  Duration: 00:00:05.00, start: 0.000000, bitrate: 2985989 kb/s\n  Stream #0:0: Video: rawvideo (I420 / 0x30323449), yuv420p(progressive), 1920x1080, 120 fps, 120 tbr, 120 tbn\n[out#0/mp4 @ 000002c470d87a80] Codec AVOption b:a (set bitrate (in bits/s)) has not been used for any stream. The most likely reason is either wrong type (e.g. a video option with no video streams) or that it is a private option of some decoder which was not actually used for any stream.\nStream mapping:\n  Stream #0:0 -> #0:0 (rawvideo (native) -> hevc (libx265))\nPress [q] to stop, [?] for help\n[libx265 @ 000002c470d8d600] Unknown option: \"aq-mode.\nx265 [info]: HEVC encoder version 4.1+190-8f11c33ac\nx265 [info]: build info [Windows][GCC 15.1.0][64 bit] 10bit\nx265 [info]: using cpu capabilities: MMX2 SSE2Fast LZCNT SSSE3 SSE4.2 AVX FMA3 BMI2 AVX2\nx265 [info]: Main 10 profile, Level-5 (Main tier)\nx265 [info]: Thread pool created using 12 threads\nx265 [info]: Slices                              : 1\nx265 [info]: frame threads / pool features       : 3 / wpp(17 rows)\nx265 [info]: Coding QT: max CU size, min CU size : 64 / 8\nx265 [info]: Residual QT: max TU size, max depth : 32 / 1 inter / 1 intra\nx265 [info]: ME / range / subpel / merge         : star / 57 / 3 / 3\nx265 [info]: Keyframe min / max / scenecut / bias  : 25 / 250 / 40 / 5.00 \nx265 [info]: Lookahead / bframes / badapt        : 25 / 4 / 2\nx265 [info]: b-pyramid / weightp / weightb       : 1 / 1 / 0\nx265 [info]: References / ref-limit  cu / depth  : 4 / on / on\nx265 [info]: AQ: mode / str / qg-size / cu-tree  : 2 / 1.0 / 32 / 1\nx265 [info]: Rate Control / qCompress            : ABR-1000 kbps / 0.60\nx265 [info]: VBV/HRD buffer / max-rate / init    : 1000 / 1000 / 0.750\nx265 [info]: tools: rect limit-modes rd=4 psy-rd=2.00 rdoq=2 psy-rdoq=1.00\nx265 [info]: tools: rskip mode=1 signhide tmvp strong-intra-smoothing lslices=4\nx265 [info]: tools: deblock sao dhdr10-info\nOutput #0, mp4, to 'C:\\Users\\mbnyau\\Desktop\\stuff\\MIUN\\quantitative_research\\video_compression\\compressed_videos\\UVG\\hevc\\1\\Jockey_1920x1080_120fps_420_8bit_YUV_hevc.mp4':\n  Metadata:\n    encoder         : Lavf62.3.100\n  Stream #0:0: Video: hevc (hev1 / 0x31766568), yuv420p10le(tv, progressive), 1920x1080, q=2-31, 1000 kb/s, 120 fps, 15360 tbn\n    Metadata:\n      encoder         : Lavc62.11.100 libx265\n    Side data:\n      cpb: bitrate max/min/avg: 1000000/0/1000000 buffer size: 1000000 vbv_delay: N/A\nframe=    0 fps=0.0 q=0.0 size=       0KiB time=N/A bitrate=N/A speed=N/A elapsed=0:00:00.52    \nframe=   12 fps= 12 q=51.0 size=       0KiB time=00:00:00.08 bitrate=   4.2kbits/s speed=0.0806x elapsed=0:00:01.03    \nframe=   22 fps= 14 q=46.5 size=       0KiB time=00:00:00.16 bitrate=   2.1kbits/s speed=0.108x elapsed=0:00:01.55    \nframe=   30 fps= 15 q=50.0 size=       0KiB time=00:00:00.23 bitrate=   1.5kbits/s speed=0.113x elapsed=0:00:02.06    \nframe=   40 fps= 16 q=48.9 size=       0KiB time=00:00:00.31 bitrate=   1.1kbits/s speed=0.123x elapsed=0:00:02.57    \nframe=   50 fps= 16 q=49.9 size=       0KiB time=00:00:00.40 bitrate=   0.9kbits/s speed=0.129x elapsed=0:00:03.09    \nframe=   60 fps= 17 q=47.6 size=       0KiB time=00:00:00.48 bitrate=   0.7kbits/s speed=0.134x elapsed=0:00:03.60    \nframe=   69 fps= 17 q=47.5 size=       0KiB time=00:00:00.55 bitrate=   0.6kbits/s speed=0.135x elapsed=0:00:04.12    \nframe=   78 fps= 17 q=47.9 size=       0KiB time=00:00:00.63 bitrate=   0.6kbits/s speed=0.136x elapsed=0:00:04.64    \nframe=   88 fps= 17 q=46.5 size=       0KiB time=00:00:00.71 bitrate=   0.5kbits/s speed=0.139x elapsed=0:00:05.15    \nframe=   96 fps= 17 q=47.8 size=       0KiB time=00:00:00.78 bitrate=   0.4kbits/s speed=0.138x elapsed=0:00:05.67    \nframe=  106 fps= 17 q=47.6 size=       0KiB time=00:00:00.86 bitrate=   0.4kbits/s speed=0.14x elapsed=0:00:06.19    \nframe=  115 fps= 17 q=47.5 size=       0KiB time=00:00:00.94 bitrate=   0.4kbits/s speed=0.14x elapsed=0:00:06.71    \nframe=  123 fps= 17 q=47.3 size=       0KiB time=00:00:01.00 bitrate=   0.3kbits/s speed=0.14x elapsed=0:00:07.22    \nframe=  132 fps= 17 q=48.4 size=       0KiB time=00:00:01.08 bitrate=   0.3kbits/s speed=0.14x elapsed=0:00:07.73    \nframe=  140 fps= 17 q=49.8 size=       0KiB time=00:00:01.15 bitrate=   0.3kbits/s speed=0.139x elapsed=0:00:08.24    \nframe=  148 fps= 17 q=49.9 size=       0KiB time=00:00:01.21 bitrate=   0.3kbits/s speed=0.139x elapsed=0:00:08.76    \nframe=  156 fps= 17 q=49.4 size=       0KiB time=00:00:01.28 bitrate=   0.3kbits/s speed=0.138x elapsed=0:00:09.27    \nframe=  165 fps= 17 q=50.9 size=       0KiB time=00:00:01.35 bitrate=   0.3kbits/s speed=0.139x elapsed=0:00:09.79    \nframe=  174 fps= 17 q=44.3 size=       0KiB time=00:00:01.43 bitrate=   0.2kbits/s speed=0.139x elapsed=0:00:10.30    \nframe=  182 fps= 17 q=44.8 size=       0KiB time=00:00:01.50 bitrate=   0.2kbits/s speed=0.139x elapsed=0:00:10.82    \nframe=  190 fps= 17 q=50.8 size=       0KiB time=00:00:01.56 bitrate=   0.2kbits/s speed=0.138x elapsed=0:00:11.34    \nframe=  198 fps= 17 q=44.7 size=       0KiB time=00:00:01.63 bitrate=   0.2kbits/s speed=0.138x elapsed=0:00:11.85    \nframe=  206 fps= 17 q=44.2 size=       0KiB time=00:00:01.70 bitrate=   0.2kbits/s speed=0.137x elapsed=0:00:12.37    \nframe=  214 fps= 17 q=50.8 size=       0KiB time=00:00:01.76 bitrate=   0.2kbits/s speed=0.137x elapsed=0:00:12.89    \nframe=  223 fps= 17 q=49.6 size=       0KiB time=00:00:01.84 bitrate=   0.2kbits/s speed=0.137x elapsed=0:00:13.40    \nframe=  230 fps= 17 q=50.7 size=       0KiB time=00:00:01.90 bitrate=   0.2kbits/s speed=0.136x elapsed=0:00:13.92    \nframe=  238 fps= 16 q=45.4 size=       0KiB time=00:00:01.96 bitrate=   0.2kbits/s speed=0.136x elapsed=0:00:14.44    \nframe=  247 fps= 17 q=50.8 size=       0KiB time=00:00:02.04 bitrate=   0.2kbits/s speed=0.137x elapsed=0:00:14.94    \nframe=  258 fps= 17 q=50.8 size=     256KiB time=00:00:02.13 bitrate= 983.2kbits/s speed=0.138x elapsed=0:00:15.47    \nframe=  266 fps= 17 q=50.9 size=     256KiB time=00:00:02.20 bitrate= 953.4kbits/s speed=0.138x elapsed=0:00:15.99    \nframe=  274 fps= 17 q=50.7 size=     256KiB time=00:00:02.26 bitrate= 925.4kbits/s speed=0.137x elapsed=0:00:16.50    \nframe=  283 fps= 17 q=50.7 size=     256KiB time=00:00:02.34 bitrate= 895.7kbits/s speed=0.138x elapsed=0:00:17.02    \nframe=  289 fps= 16 q=45.5 size=     256KiB time=00:00:02.39 bitrate= 877.0kbits/s speed=0.136x elapsed=0:00:17.53    \nframe=  296 fps= 16 q=50.0 size=     256KiB time=00:00:02.45 bitrate= 856.1kbits/s speed=0.136x elapsed=0:00:18.05    \nframe=  302 fps= 16 q=50.5 size=     256KiB time=00:00:02.50 bitrate= 839.0kbits/s speed=0.135x elapsed=0:00:18.57    \nframe=  308 fps= 16 q=51.0 size=     256KiB time=00:00:02.55 bitrate= 822.6kbits/s speed=0.134x elapsed=0:00:19.08    \nframe=  316 fps= 16 q=51.0 size=     256KiB time=00:00:02.61 bitrate= 801.6kbits/s speed=0.133x elapsed=0:00:19.60    \nframe=  324 fps= 16 q=51.0 size=     256KiB time=00:00:02.68 bitrate= 781.7kbits/s speed=0.133x elapsed=0:00:20.11    \nframe=  332 fps= 16 q=51.0 size=     256KiB time=00:00:02.75 bitrate= 762.7kbits/s speed=0.133x elapsed=0:00:20.63    \nframe=  340 fps= 16 q=51.0 size=     256KiB time=00:00:02.81 bitrate= 744.7kbits/s speed=0.133x elapsed=0:00:21.15    \nframe=  349 fps= 16 q=51.0 size=     256KiB time=00:00:02.89 bitrate= 725.4kbits/s speed=0.133x elapsed=0:00:21.66    \nframe=  357 fps= 16 q=50.5 size=     256KiB time=00:00:02.95 bitrate= 709.0kbits/s speed=0.133x elapsed=0:00:22.19    \nframe=  364 fps= 16 q=49.9 size=     256KiB time=00:00:03.01 bitrate= 695.3kbits/s speed=0.133x elapsed=0:00:22.71    \nframe=  372 fps= 16 q=49.5 size=     256KiB time=00:00:03.08 bitrate= 680.3kbits/s speed=0.133x elapsed=0:00:23.22    \nframe=  380 fps= 16 q=50.9 size=     256KiB time=00:00:03.15 bitrate= 665.9kbits/s speed=0.133x elapsed=0:00:23.73    \nframe=  387 fps= 16 q=50.8 size=     256KiB time=00:00:03.20 bitrate= 653.8kbits/s speed=0.132x elapsed=0:00:24.25    \nframe=  395 fps= 16 q=50.8 size=     256KiB time=00:00:03.27 bitrate= 640.5kbits/s speed=0.132x elapsed=0:00:24.76    \nframe=  403 fps= 16 q=47.8 size=     256KiB time=00:00:03.34 bitrate= 627.7kbits/s speed=0.132x elapsed=0:00:25.28    \nframe=  411 fps= 16 q=49.7 size=     256KiB time=00:00:03.40 bitrate= 615.4kbits/s speed=0.132x elapsed=0:00:25.80    \nframe=  418 fps= 16 q=50.9 size=     256KiB time=00:00:03.46 bitrate= 605.0kbits/s speed=0.132x elapsed=0:00:26.32    \nframe=  425 fps= 16 q=47.6 size=     256KiB time=00:00:03.52 bitrate= 595.0kbits/s speed=0.131x elapsed=0:00:26.83    \nframe=  432 fps= 16 q=50.2 size=     256KiB time=00:00:03.58 bitrate= 585.4kbits/s speed=0.131x elapsed=0:00:27.35    \nframe=  439 fps= 16 q=50.4 size=     256KiB time=00:00:03.64 bitrate= 576.0kbits/s speed=0.131x elapsed=0:00:27.87    \nframe=  446 fps= 16 q=50.8 size=     256KiB time=00:00:03.70 bitrate= 566.9kbits/s speed=0.13x elapsed=0:00:28.38    \nframe=  453 fps= 16 q=47.6 size=     256KiB time=00:00:03.75 bitrate= 558.1kbits/s speed=0.13x elapsed=0:00:28.90    \nframe=  461 fps= 16 q=50.6 size=     256KiB time=00:00:03.82 bitrate= 548.4kbits/s speed=0.13x elapsed=0:00:29.42    \nframe=  468 fps= 16 q=50.9 size=     256KiB time=00:00:03.88 bitrate= 540.1kbits/s speed=0.13x elapsed=0:00:29.93    \nframe=  476 fps= 16 q=49.8 size=     256KiB time=00:00:03.95 bitrate= 531.0kbits/s speed=0.13x elapsed=0:00:30.45    \nframe=  484 fps= 16 q=47.5 size=     256KiB time=00:00:04.01 bitrate= 522.2kbits/s speed=0.13x elapsed=0:00:30.96    \nframe=  492 fps= 16 q=50.4 size=     256KiB time=00:00:04.08 bitrate= 513.7kbits/s speed=0.13x elapsed=0:00:31.48    \nframe=  500 fps= 16 q=45.1 size=     256KiB time=00:00:04.15 bitrate= 505.4kbits/s speed=0.13x elapsed=0:00:31.99    \nframe=  508 fps= 16 q=50.6 size=     512KiB time=00:00:04.21 bitrate= 994.8kbits/s speed=0.13x elapsed=0:00:32.51    \nframe=  516 fps= 16 q=47.1 size=     512KiB time=00:00:04.28 bitrate= 979.3kbits/s speed=0.13x elapsed=0:00:33.03    \nframe=  523 fps= 16 q=49.6 size=     512KiB time=00:00:04.34 bitrate= 966.1kbits/s speed=0.129x elapsed=0:00:33.55    \nframe=  531 fps= 16 q=49.8 size=     512KiB time=00:00:04.40 bitrate= 951.5kbits/s speed=0.129x elapsed=0:00:34.06    \nframe=  540 fps= 16 q=48.7 size=     512KiB time=00:00:04.48 bitrate= 935.6kbits/s speed=0.13x elapsed=0:00:34.58    \nframe=  548 fps= 16 q=48.7 size=     512KiB time=00:00:04.55 bitrate= 921.9kbits/s speed=0.13x elapsed=0:00:35.09    \nframe=  555 fps= 16 q=48.6 size=     512KiB time=00:00:04.60 bitrate= 910.2kbits/s speed=0.129x elapsed=0:00:35.61    \nframe=  564 fps= 16 q=48.7 size=     512KiB time=00:00:04.68 bitrate= 895.7kbits/s speed=0.13x elapsed=0:00:36.12    \nframe=  572 fps= 16 q=49.8 size=     512KiB time=00:00:04.75 bitrate= 883.1kbits/s speed=0.13x elapsed=0:00:36.64    \nframe=  580 fps= 16 q=49.5 size=     512KiB time=00:00:04.81 bitrate= 870.9kbits/s speed=0.13x elapsed=0:00:37.15    \nframe=  588 fps= 16 q=48.4 size=     512KiB time=00:00:04.88 bitrate= 859.0kbits/s speed=0.13x elapsed=0:00:37.67    \nframe=  595 fps= 16 q=49.7 size=     512KiB time=00:00:04.94 bitrate= 848.8kbits/s speed=0.129x elapsed=0:00:38.18    \n[mp4 @ 000002c470d87b80] Starting second pass: moving the moov atom to the beginning of the file\n[out#0/mp4 @ 000002c470d87a80] video:606KiB audio:0KiB subtitle:0KiB other streams:0KiB global headers:2KiB muxing overhead: 1.780825%\nframe=  600 fps= 16 q=49.6 Lsize=     616KiB time=00:00:04.98 bitrate=1013.2kbits/s speed=0.13x elapsed=0:00:38.36    \nx265 [info]: frame I:      3, Avg QP:46.51  kb/s: 4238.08 \nx265 [info]: frame P:    165, Avg QP:46.09  kb/s: 2025.02 \nx265 [info]: frame B:    432, Avg QP:49.80  kb/s: 569.80  \nx265 [info]: Weighted P-Frames: Y:0.0% UV:0.0%\n\nencoded 600 frames in 38.31s (15.66 fps), 988.33 kb/s, Avg QP:48.77\n",
  "seconds": 38.44601345062256,
  "probe_out": {}
}